<?xml version="1.0" encoding="UTF-8" standalone="no" ?>
<!DOCTYPE svg PUBLIC "-//W3C//DTD SVG 1.1//EN" "http://www.w3.org/Graphics/SVG/1.1/DTD/svg11.dtd">
<svg xmlns="http://www.w3.org/2000/svg" xmlns:xlink="http://www.w3.org/1999/xlink" version="1.1" width="1080" height="1080" viewBox="0 0 1080 1080" xml:space="preserve">
<desc>Created with Fabric.js 5.2.4</desc>
<defs>
</defs>
<g transform="matrix(1 0 0 1 540 540)" id="9179629d-f361-4eed-bfcc-993b73f401e0"  >
<rect style="stroke: none; stroke-width: 1; stroke-dasharray: none; stroke-linecap: butt; stroke-dashoffset: 0; stroke-linejoin: miter; stroke-miterlimit: 4; fill: rgb(255,255,255); fill-rule: nonzero; opacity: 1; visibility: hidden;" vector-effect="non-scaling-stroke"  x="-540" y="-540" rx="0" ry="0" width="1080" height="1080" />
</g>
<g transform="matrix(1 0 0 1 540 540)" id="8109c023-9640-4faf-affc-0725a9ecfe2b"  >
</g>
<g transform="matrix(2.81 0 0 2.81 540 540)"  >
<path style="stroke: none; stroke-width: 1; stroke-dasharray: none; stroke-linecap: butt; stroke-dashoffset: 0; stroke-linejoin: miter; stroke-miterlimit: 4; fill: rgb(0,0,0); fill-rule: evenodd; opacity: 1;"  transform=" translate(-192.5, -31.44)" d="M 56.8603 0 C 65.5728 0 73.4598 3.54913 79.2376 9.19132 C 84.9236 14.9245 88.5003 22.7508 88.4086 31.4871 C 88.4086 40.1324 84.9236 47.9587 79.1459 53.6919 C 73.735 59.0611 66.3064 62.5192 58.1442 62.8832 L 56.7686 62.8832 C 48.0561 62.8832 40.1691 59.4251 34.3913 53.6919 C 28.7053 47.9587 25.1286 40.1324 25.1286 31.4871 L 25.1286 24.9349 L 25.1286 17.8366 L 25.1286 15.7436 C 25.1286 13.2865 24.0281 10.9204 22.3773 9.28233 C 20.7265 7.55327 18.4337 6.55223 15.8659 6.55223 C 13.3897 6.55223 11.0052 7.64427 9.35444 9.28233 C 7.61194 10.9204 6.60313 13.1955 6.60313 15.7436 C 6.60313 18.2006 7.70365 20.5667 9.35444 22.2048 C 11.0052 23.9338 13.298 24.9349 15.8659 24.9349 C 17.3332 24.9349 18.5255 26.1179 18.5255 27.574 L 18.5255 28.848 C 18.5255 30.3041 17.3332 31.4871 15.8659 31.4871 C 11.5555 31.4871 7.52023 29.667 4.67722 26.8459 C 1.8342 24.0248 0 20.0207 0 15.7436 C 0 11.3754 1.8342 7.46226 4.67722 4.64116 C 7.52023 1.82006 11.4638 0 15.8659 0 C 20.1762 0 24.2115 1.82006 27.1462 4.64116 C 29.9892 7.55327 31.8234 11.4664 31.8234 15.7436 L 31.8234 31.3961 C 31.8234 38.2213 34.5747 44.4096 39.1602 48.9597 C 43.7458 53.4189 49.982 56.24 56.8603 56.24 C 63.7386 56.24 69.9749 53.5099 74.5604 48.9597 C 79.0542 44.5006 81.8972 38.2213 81.8972 31.3961 C 81.8972 24.5709 79.1459 18.3826 74.5604 13.8325 C 70.0666 9.37333 63.7386 6.55223 56.8603 6.55223 L 50.2572 6.55223 C 48.7898 6.55223 47.5976 7.73527 47.5976 9.19132 L 47.5976 15.7436 L 47.5976 22.2958 L 47.5976 29.394 L 47.5976 31.4871 C 47.5976 33.9442 48.6981 36.3103 50.3489 37.9483 C 51.9997 39.6774 54.2924 40.6784 56.8603 40.6784 C 59.3365 40.6784 61.7209 39.5864 63.3717 37.9483 C 65.1142 36.3103 66.123 34.0352 66.123 31.4871 C 66.123 29.03 65.0225 26.6639 63.3717 25.0259 C 61.7209 23.2968 59.4282 22.2958 56.8603 22.2958 C 55.3929 22.2958 54.2007 21.1127 54.2007 19.6567 L 54.2007 18.3826 C 54.2007 16.9266 55.3929 15.7436 56.8603 15.7436 C 61.1707 15.7436 65.2059 17.5636 68.0489 20.3847 C 70.892 23.2058 72.7262 27.21 72.7262 31.4871 C 72.7262 35.7643 70.892 39.7684 68.0489 42.5895 C 65.2059 45.4106 61.1707 47.2307 56.8603 47.2307 C 52.5499 47.2307 48.5147 45.4106 45.6717 42.5895 C 42.8286 39.7684 40.9944 35.7643 40.9944 31.4871 L 40.9944 29.394 L 40.9944 15.7436 L 40.9944 6.55223 L 40.9944 3.27611 L 40.9944 2.63909 C 40.9944 1.18304 42.1867 0 43.654 0 L 56.8603 0 Z M 116.38 22.3868 C 118.948 22.3868 121.241 23.0239 123.259 24.2979 C 125.276 25.572 126.927 27.392 128.119 29.6671 C 129.311 31.9422 129.953 34.5813 129.953 37.5844 C 129.953 40.5875 129.311 43.2266 128.119 45.5017 C 126.927 47.7767 125.368 49.5968 123.35 50.8708 C 121.333 52.1449 119.132 52.7819 116.564 52.7819 C 115.096 52.7819 113.721 52.5089 112.437 52.0539 C 111.153 51.5989 110.052 50.9619 109.043 50.2338 C 108.513 49.8513 108.059 49.4687 107.668 49.0862 L 107.668 49.4148 C 107.668 50.3248 107.393 51.1439 106.751 51.7809 C 106.109 52.4179 105.375 52.7819 104.366 52.7819 C 103.449 52.7819 102.624 52.5089 101.982 51.8719 C 101.34 51.2349 101.065 50.4158 101.065 49.5058 L 101.065 15.0156 C 101.065 14.1056 101.34 13.2865 101.982 12.6495 C 102.624 12.0125 103.357 11.6485 104.366 11.6485 C 105.283 11.6485 106.109 12.0125 106.751 12.6495 C 107.393 13.2865 107.668 14.1056 107.668 15.0156 L 107.668 26.5437 C 108.178 25.9604 108.777 25.3205 109.594 24.7529 C 110.511 24.1159 111.52 23.4789 112.62 23.1149 C 113.812 22.5689 115.096 22.3868 116.38 22.3868 Z M 115.555 28.3931 C 113.904 28.3931 112.528 28.7571 111.336 29.5761 C 110.144 30.3951 109.135 31.4872 108.493 32.8522 C 107.851 34.2173 107.484 35.7643 107.484 37.4934 C 107.484 39.2224 107.851 40.7695 108.493 42.1345 C 109.135 43.4996 110.144 44.6826 111.336 45.4107 C 112.528 46.1387 113.996 46.5937 115.555 46.5937 C 117.206 46.5937 118.581 46.2297 119.774 45.4107 C 120.966 44.5916 121.883 43.4996 122.617 42.1345 C 123.259 40.7695 123.625 39.1314 123.625 37.4934 C 123.625 35.7643 123.259 34.2173 122.617 32.8522 C 121.975 31.4872 120.966 30.3951 119.774 29.5761 C 118.581 28.7571 117.114 28.3931 115.555 28.3931 Z M 138.757 52.1452 C 137.84 52.1452 137.015 51.7812 136.373 51.1442 C 135.731 50.5072 135.456 49.6881 135.456 48.7781 L 135.456 26.2093 C 135.456 25.2993 135.731 24.4803 136.373 23.8432 C 137.015 23.2062 137.749 22.8422 138.757 22.8422 C 139.674 22.8422 140.5 23.2062 141.142 23.8432 C 141.784 24.4803 142.059 25.2993 142.059 26.2093 L 142.059 26.9997 C 142.389 26.4203 142.797 25.9053 143.251 25.3903 C 143.893 24.7533 144.627 24.1162 145.452 23.6612 C 146.278 23.2062 147.103 22.8422 148.02 22.6602 C 148.937 22.4782 149.854 22.2962 150.771 22.2962 C 151.872 22.2962 152.789 22.5692 153.523 23.2062 C 154.256 23.8432 154.623 24.5713 154.623 25.3903 C 154.623 26.5733 154.348 27.4834 153.706 28.0294 C 153.064 28.5754 152.422 28.8484 151.688 28.8484 C 150.955 28.8484 150.313 28.7574 149.763 28.4844 C 149.212 28.2114 148.57 28.1204 147.837 28.1204 C 147.195 28.1204 146.461 28.3024 145.819 28.5754 C 145.177 28.8484 144.535 29.3944 143.985 30.0314 C 143.435 30.6685 142.976 31.4875 142.609 32.4885 C 142.242 33.4896 142.059 34.5816 142.059 35.9467 L 142.059 48.9601 C 142.059 49.8701 141.784 50.6892 141.142 51.3262 C 140.5 51.8722 139.674 52.1452 138.757 52.1452 Z M 184.978 23.2972 C 184.336 22.6602 183.511 22.3872 182.594 22.3872 C 181.585 22.3872 180.851 22.6602 180.393 23.3882 C 179.751 24.0252 179.475 24.8443 179.475 25.7543 L 179.475 25.8236 C 179.15 25.5275 178.785 25.2314 178.375 24.9353 C 177.366 24.2073 176.174 23.5702 174.89 23.1152 C 173.514 22.6602 172.047 22.3872 170.488 22.3872 C 168.103 22.3872 165.811 23.0242 163.793 24.2983 C 161.775 25.5723 160.125 27.3924 158.932 29.6674 C 157.74 31.9425 157.098 34.5816 157.098 37.5847 C 157.098 40.4968 157.74 43.1359 158.932 45.411 C 160.125 47.6861 161.775 49.5061 163.793 50.7802 C 165.811 52.0542 168.103 52.6913 170.671 52.6913 C 172.047 52.6913 173.331 52.4182 174.523 51.9632 C 175.715 51.5082 176.724 50.9622 177.641 50.3252 C 178.316 49.8562 178.842 49.338 179.292 48.843 C 179.305 49.7271 179.582 50.5224 180.209 51.1442 C 180.851 51.7812 181.676 52.1452 182.594 52.1452 C 183.602 52.1452 184.336 51.7812 184.978 51.1442 C 185.62 50.5072 185.895 49.6882 185.895 48.7781 L 185.895 25.6633 C 185.895 24.7533 185.62 23.9342 184.978 23.2972 Z M 175.624 45.502 C 174.431 46.321 173.056 46.685 171.405 46.685 C 169.846 46.685 168.47 46.321 167.186 45.502 C 165.994 44.683 164.985 43.5909 164.343 42.2259 C 163.701 40.8608 163.334 39.3138 163.334 37.5847 C 163.334 35.7647 163.701 34.2176 164.343 32.8526 C 164.985 31.4875 165.994 30.3955 167.186 29.5764 C 168.47 28.7574 169.846 28.3934 171.405 28.3934 C 172.964 28.3934 174.431 28.7574 175.624 29.5764 C 176.816 30.3955 177.825 31.4875 178.467 32.8526 C 179.109 34.3086 179.475 35.8557 179.475 37.5847 C 179.475 39.3138 179.109 40.8608 178.467 42.2259 C 177.825 43.5909 176.816 44.683 175.624 45.502 Z M 208.825 22.3872 C 211.576 22.3872 213.594 22.9332 215.061 24.1163 C 216.437 25.2083 217.446 26.7553 217.996 28.6664 C 218.546 30.5775 218.822 32.6706 218.822 34.9456 L 218.822 48.9601 C 218.822 49.8702 218.546 50.6892 217.904 51.3262 C 217.262 51.9632 216.529 52.3273 215.52 52.3273 C 214.603 52.3273 213.777 51.9632 213.135 51.3262 C 212.493 50.6892 212.218 49.8702 212.218 48.9601 L 212.218 34.8546 C 212.218 33.6716 212.035 32.5796 211.76 31.5785 C 211.485 30.5775 210.843 29.8495 210.109 29.2124 C 209.284 28.6664 208.183 28.3024 206.624 28.3024 C 205.157 28.3024 203.873 28.5754 202.864 29.2124 C 201.855 29.7585 201.121 30.5775 200.571 31.5785 C 200.021 32.5796 199.746 33.6716 199.746 34.8546 L 199.746 48.8691 C 199.746 49.7792 199.471 50.5982 198.829 51.2352 C 198.187 51.8722 197.453 52.2363 196.444 52.2363 C 195.527 52.2363 194.702 51.8722 194.06 51.2352 C 193.418 50.5982 193.143 49.7792 193.143 48.8691 L 193.143 26.2093 C 193.143 25.2993 193.418 24.4803 194.06 23.8432 C 194.702 23.2062 195.435 22.8422 196.444 22.8422 C 197.361 22.8422 198.187 23.2062 198.829 23.8432 C 199.471 24.4803 199.746 25.2993 199.746 26.2093 L 199.746 27.1668 C 199.938 26.9177 200.15 26.6607 200.388 26.3913 C 201.03 25.6633 201.763 25.0263 202.589 24.3893 C 203.414 23.7522 204.423 23.2972 205.432 22.8422 C 206.441 22.5692 207.633 22.3872 208.825 22.3872 Z M 252.202 12.5585 C 251.56 11.9215 250.735 11.6485 249.818 11.6485 C 248.9 11.6485 248.075 12.0125 247.616 12.6495 C 246.975 13.2865 246.699 14.1056 246.699 15.0156 L 246.699 25.8232 C 246.374 25.5271 246.009 25.231 245.599 24.9349 C 244.59 24.2069 243.398 23.5699 242.114 23.1149 C 240.738 22.6599 239.271 22.3868 237.712 22.3868 C 235.327 22.3868 233.035 23.0239 231.017 24.2979 C 228.999 25.572 227.349 27.392 226.156 29.6671 C 224.964 31.9422 224.322 34.5813 224.322 37.5844 C 224.322 40.4965 224.964 43.1356 226.156 45.4107 C 227.349 47.6857 228.999 49.5058 231.017 50.7798 C 233.035 52.0539 235.327 52.6909 237.895 52.6909 C 239.271 52.6909 240.555 52.4179 241.747 51.9629 C 242.939 51.5079 243.948 50.9619 244.865 50.3248 C 245.54 49.8559 246.066 49.3376 246.516 48.8426 C 246.529 49.7267 246.806 50.522 247.433 51.1439 C 248.075 51.7809 248.9 52.1449 249.818 52.1449 C 250.826 52.1449 251.56 51.7809 252.202 51.1439 C 252.844 50.5068 253.119 49.6878 253.119 48.7778 L 253.119 14.9246 C 253.119 14.0146 252.844 13.1955 252.202 12.5585 Z M 242.939 45.5017 C 241.747 46.3207 240.371 46.6847 238.721 46.6847 C 237.07 46.6847 235.694 46.3207 234.502 45.5017 C 233.31 44.6826 232.301 43.5906 231.659 42.2255 C 231.017 40.8605 230.65 39.3134 230.65 37.5844 C 230.65 35.7643 231.017 34.2173 231.659 32.8522 C 232.301 31.4872 233.31 30.3951 234.502 29.5761 C 235.786 28.7571 237.162 28.3931 238.721 28.3931 C 240.28 28.3931 241.747 28.7571 242.939 29.5761 C 244.132 30.3951 245.14 31.4872 245.782 32.8522 C 246.424 34.3083 246.791 35.8553 246.791 37.5844 C 246.791 39.3134 246.424 40.8605 245.782 42.2255 C 245.14 43.5906 244.132 44.6826 242.939 45.5017 Z M 273.113 22.3872 C 275.222 22.3872 277.056 22.5692 278.615 23.0242 C 280.174 23.4792 281.367 24.1163 282.284 24.8443 C 283.109 25.6633 283.568 26.5733 283.568 27.6654 C 283.568 28.3934 283.384 29.1214 282.926 29.7585 C 282.467 30.3955 281.825 30.7595 281 30.7595 C 280.45 30.7595 279.899 30.6685 279.533 30.4865 C 279.166 30.3045 278.799 30.1225 278.524 29.8495 C 278.352 29.6792 278.145 29.5444 277.924 29.4008 C 277.791 29.3141 277.653 29.2242 277.515 29.1214 C 277.148 28.9394 276.598 28.7574 275.864 28.5754 C 275.668 28.551 275.484 28.5266 275.314 28.504 C 274.849 28.4422 274.482 28.3934 274.213 28.3934 C 272.379 28.3934 270.728 28.7574 269.444 29.5764 C 268.16 30.3955 267.152 31.4875 266.418 32.8526 C 265.684 34.2176 265.409 35.7647 265.409 37.5847 C 265.409 39.3138 265.776 40.8608 266.51 42.2259 C 267.243 43.5909 268.252 44.683 269.444 45.502 C 270.728 46.321 272.196 46.685 273.847 46.685 C 274.764 46.685 275.589 46.594 276.231 46.503 C 276.873 46.412 277.423 46.23 277.882 46.048 C 278.365 45.8082 278.778 45.4981 279.12 45.2411 L 279.2 45.1809 L 279.257 45.138 C 279.624 44.774 280.266 44.683 281.092 44.683 C 282.009 44.683 282.742 44.956 283.293 45.593 C 283.843 46.23 284.026 46.9581 284.026 47.7771 C 284.026 48.6871 283.476 49.5061 282.467 50.2342 C 281.458 50.9622 280.083 51.5992 278.432 52.0542 C 276.781 52.5093 274.947 52.7823 273.021 52.7823 C 270.086 52.7823 267.61 52.1452 265.501 50.7802 C 263.392 49.4151 261.741 47.5951 260.549 45.32 C 259.356 43.0449 258.806 40.4058 258.806 37.5847 C 258.806 34.5816 259.448 31.9425 260.64 29.6674 C 261.832 27.3924 263.575 25.5723 265.776 24.2983 C 267.794 23.0242 270.362 22.3872 273.113 22.3872 Z M 314.933 23.2972 C 314.291 22.6602 313.465 22.3872 312.548 22.3872 C 311.631 22.3872 310.806 22.6602 310.347 23.3882 C 309.705 24.0252 309.43 24.8443 309.43 25.7543 L 309.43 25.8236 C 309.105 25.5275 308.74 25.2314 308.33 24.9353 C 307.321 24.2073 306.129 23.5702 304.845 23.1152 C 303.469 22.6602 302.002 22.3872 300.442 22.3872 C 298.058 22.3872 295.765 23.0242 293.748 24.2983 C 291.73 25.5723 290.079 27.3924 288.887 29.6674 C 287.695 31.9425 287.053 34.5816 287.053 37.5847 C 287.053 40.4968 287.695 43.1359 288.887 45.411 C 290.079 47.6861 291.73 49.5061 293.748 50.7802 C 295.765 52.0542 298.058 52.6913 300.626 52.6913 C 302.002 52.6913 303.285 52.4182 304.478 51.9632 C 305.67 51.5082 306.679 50.9622 307.596 50.3252 C 308.271 49.8562 308.797 49.338 309.247 48.843 C 309.26 49.7271 309.537 50.5224 310.164 51.1442 C 310.806 51.7812 311.631 52.1452 312.548 52.1452 C 313.557 52.1452 314.291 51.7812 314.933 51.1442 C 315.575 50.5072 315.85 49.6882 315.85 48.7781 L 315.85 25.6633 C 315.85 24.7533 315.575 23.9342 314.933 23.2972 Z M 305.67 45.502 C 304.478 46.321 303.102 46.685 301.451 46.685 C 299.892 46.685 298.425 46.321 297.233 45.502 C 296.04 44.683 295.032 43.5909 294.39 42.2259 C 293.748 40.8608 293.381 39.3138 293.381 37.5847 C 293.381 35.7647 293.748 34.2176 294.39 32.8526 C 295.032 31.4875 296.04 30.3955 297.233 29.5764 C 298.517 28.7574 299.892 28.3934 301.451 28.3934 C 303.01 28.3934 304.478 28.7574 305.67 29.5764 C 306.862 30.3955 307.871 31.4875 308.513 32.8526 C 309.155 34.3086 309.522 35.8557 309.522 37.5847 C 309.522 39.3138 309.155 40.8608 308.513 42.2259 C 307.871 43.5909 306.862 44.683 305.67 45.502 Z M 338.87 23.4789 C 339.787 23.4789 340.521 23.7519 341.071 24.2979 C 341.621 24.8439 341.988 25.572 341.988 26.482 C 341.988 27.392 341.713 28.12 341.071 28.6661 C 340.521 29.2121 339.787 29.4851 338.87 29.4851 L 333.826 29.4851 L 333.826 48.7778 C 333.826 49.6878 333.551 50.5068 332.909 51.1439 C 332.267 51.7809 331.533 52.1449 330.524 52.1449 C 329.607 52.1449 328.782 51.7809 328.14 51.1439 C 327.498 50.5068 327.223 49.6878 327.223 48.7778 L 327.223 29.4851 L 324.288 29.4851 C 323.371 29.4851 322.637 29.2121 322.087 28.6661 C 321.537 28.12 321.17 27.392 321.17 26.482 C 321.17 25.572 321.445 24.8439 322.087 24.2979 C 322.637 23.7519 323.371 23.4789 324.288 23.4789 L 327.223 23.4789 L 327.223 20.9308 C 327.223 18.3827 328.14 16.1076 329.974 14.3786 C 331.808 12.5585 334.56 11.6485 338.228 11.6485 C 339.053 11.6485 339.787 11.7395 340.612 12.0125 C 341.346 12.1945 341.988 12.5585 342.538 13.1045 C 343.089 13.5595 343.272 14.2876 343.272 15.0156 C 343.272 15.9256 342.997 16.6536 342.447 17.1997 C 341.896 17.7457 341.254 18.0187 340.612 18.0187 C 340.246 18.0187 339.787 17.9277 339.145 17.7457 C 338.503 17.5637 337.861 17.4727 337.219 17.4727 C 336.302 17.4727 335.568 17.6547 335.11 18.1097 C 334.651 18.4737 334.284 19.0197 334.101 19.4747 C 333.918 20.0208 333.826 20.4758 333.826 20.8398 L 333.826 23.4789 L 338.87 23.4789 Z M 351.526 50.7802 C 353.819 52.0542 356.57 52.6913 359.688 52.6913 C 361.523 52.6913 363.265 52.4183 364.824 51.8722 C 366.567 51.3262 367.942 50.5982 368.859 49.7792 C 369.868 49.0511 370.419 48.1411 370.419 47.1401 C 370.419 46.412 370.143 45.775 369.593 45.229 C 369.043 44.683 368.401 44.41 367.576 44.41 C 367.025 44.41 366.383 44.501 365.741 44.865 L 364.366 45.684 C 363.907 46.048 363.265 46.321 362.44 46.503 C 361.706 46.776 360.606 46.8671 359.23 46.8671 C 357.763 46.8671 356.387 46.503 355.103 45.775 C 353.819 45.047 352.718 44.046 351.893 42.6809 C 351.39 41.8488 351.023 40.9153 350.813 39.8598 L 369.043 39.8598 C 369.868 39.8598 370.694 39.5868 371.336 39.0408 C 371.978 38.4948 372.344 37.8577 372.344 36.9477 C 372.344 35.0366 371.978 33.1256 371.244 31.3965 C 370.51 29.6674 369.501 28.1204 368.217 26.7553 C 366.934 25.3903 365.466 24.2983 363.815 23.5702 C 362.165 22.7512 360.33 22.3872 358.496 22.3872 C 356.112 22.3872 353.819 22.9332 351.618 24.2073 C 349.509 25.4813 347.766 27.3014 346.39 29.5764 C 345.015 31.8515 344.373 34.6726 344.373 37.9487 C 344.373 40.7698 345.015 43.3179 346.207 45.502 C 347.491 47.6861 349.233 49.5061 351.526 50.7802 Z M 350.942 34.3996 C 351.032 33.9772 351.137 33.5837 351.251 33.2166 C 351.618 32.0335 352.168 31.1235 352.902 30.3955 C 353.636 29.7585 354.461 29.2124 355.378 28.9394 C 356.387 28.6664 357.396 28.4844 358.496 28.4844 C 359.597 28.4844 360.697 28.7574 361.706 29.2124 C 362.715 29.6674 363.632 30.3955 364.274 31.2145 C 364.916 32.0335 365.283 32.9436 365.374 34.0356 L 365.374 34.3996 L 350.942 34.3996 Z M 380.965 52.1446 C 379.864 52.1446 379.039 51.8716 378.489 51.3255 C 377.938 50.7795 377.663 49.9605 377.663 48.8685 L 377.663 47.9584 C 377.663 46.8664 377.938 46.0474 378.489 45.5013 C 379.039 44.9553 379.864 44.6823 380.965 44.6823 L 381.698 44.6823 C 382.799 44.6823 383.624 44.9553 384.175 45.5013 C 384.725 46.0474 385 46.8664 385 47.9584 L 385 48.8685 C 385 49.9605 384.725 50.7795 384.175 51.3255 C 383.624 51.8716 382.799 52.1446 381.698 52.1446 L 380.965 52.1446 Z" stroke-linecap="round" />
</g>
</svg>